<?xml version="1.0" standalone="no"?>
<!DOCTYPE svg PUBLIC "-//W3C//DTD SVG 20010904//EN"
 "http://www.w3.org/TR/2001/REC-SVG-20010904/DTD/svg10.dtd">
<svg version="1.0" xmlns="http://www.w3.org/2000/svg"
 width="150.000000pt" height="150.000000pt" viewBox="0 0 150.000000 150.000000"
 preserveAspectRatio="xMidYMid meet">
<metadata>
Created by potrace 1.11, written by Peter Selinger 2001-2013
</metadata>
<g transform="translate(0.000000,150.000000) scale(0.100000,-0.100000)"
fill="#000000" stroke="none">
<path d="M668 1423 l-3 -48 -65 -17 c-36 -10 -75 -20 -87 -24 -15 -4 -23 0
-27 13 -4 10 -15 29 -25 42 l-18 24 -57 -34 c-31 -18 -56 -36 -56 -39 0 -3 11
-23 24 -44 l24 -39 -61 -62 -61 -62 -40 24 c-23 12 -44 23 -48 23 -6 0 -68
-102 -68 -113 0 -3 20 -17 44 -31 l44 -26 -19 -61 c-10 -33 -19 -69 -19 -80 0
-17 -8 -19 -60 -19 l-61 0 3 -72 3 -73 30 -1 c86 -3 79 2 93 -69 7 -36 13 -71
15 -78 1 -8 -19 -12 -63 -13 -36 -1 -68 -2 -71 -3 -4 0 -9 -17 -11 -36 l-4
-35 181 -1 c946 -3 1238 -3 1245 1 5 3 8 20 8 38 l-1 32 -75 0 c-72 0 -74 1
-69 23 3 12 11 48 17 79 l13 57 56 3 56 3 0 70 0 70 -56 3 -56 3 -16 62 c-8
34 -18 70 -22 79 -5 12 4 24 37 44 24 15 45 28 47 30 3 3 -53 100 -66 114 -2
2 -24 -7 -48 -20 l-45 -25 -61 61 -61 61 27 43 c14 23 25 43 23 45 -9 9 -110
65 -116 65 -4 0 -18 -19 -30 -41 -20 -34 -27 -40 -45 -34 -12 4 -50 14 -84 23
l-63 16 0 48 0 48 -74 0 -75 0 -3 -47z m-23 -274 c19 9 34 22 35 29 0 6 5 12
10 12 8 0 16 -55 11 -83 -1 -4 -3 -21 -4 -37 -2 -17 -6 -32 -9 -35 -8 -9 -75
34 -82 51 -3 8 -10 13 -15 10 -5 -3 -14 1 -21 9 -10 13 -9 15 9 15 18 0 21 6
23 53 l2 52 3 -46 4 -46 34 16z m-118 -46 c-2 -21 -4 -6 -4 32 0 39 2 55 4 38
2 -18 2 -50 0 -70z m-11 -110 c-10 -10 -19 5 -10 18 6 11 8 11 12 0 2 -7 1
-15 -2 -18z m187 5 c15 -7 27 -17 27 -23 0 -12 -47 -35 -72 -35 -24 0 -32 23
-18 49 12 24 25 26 63 9z m-166 -105 c-3 -10 -5 -2 -5 17 0 19 2 27 5 18 2
-10 2 -26 0 -35z m152 -20 c0 -41 -2 -45 -11 -26 -10 20 -4 73 7 73 3 0 5 -21
4 -47z m391 -32 c0 -5 -7 -11 -15 -15 -9 -3 -15 0 -15 9 0 8 7 15 15 15 8 0
15 -4 15 -9z m-682 -42 c18 -19 32 -61 32 -95 0 -8 -10 -14 -25 -14 -18 0 -25
5 -25 20 0 11 -10 30 -21 41 -17 17 -23 19 -30 8 -7 -12 -9 -12 -9 0 0 25 -13
3 -21 -36 -7 -33 -8 -32 -4 12 7 77 61 110 103 64z m662 1 c0 -5 -4 -10 -10
-10 -5 0 -10 5 -10 10 0 6 5 10 10 10 6 0 10 -4 10 -10z m-795 -37 c-3 -8 -5
-28 -5 -44 0 -18 -4 -28 -10 -24 -5 3 -10 23 -10 44 0 27 4 38 15 38 10 0 14
-6 10 -14z m15 -33 c-6 -37 -8 -40 -9 -13 -1 29 8 68 14 61 1 -2 -1 -23 -5
-48z m213 35 c1 -5 -6 -11 -15 -13 -11 -2 -18 3 -18 13 0 17 30 18 33 0z m210
-37 c22 -34 -36 -66 -62 -34 -9 11 -10 20 -1 36 13 25 47 24 63 -2z m-386 -25
c-3 -10 -5 -4 -5 12 0 17 2 24 5 18 2 -7 2 -21 0 -30z m173 3 c-13 -13 -35 7
-25 24 5 8 11 8 21 -1 10 -8 12 -15 4 -23z m574 13 c-3 -5 -10 -7 -15 -3 -5 3
-7 10 -3 15 3 5 10 7 15 3 5 -3 7 -10 3 -15z m-727 -11 c-3 -8 -6 -5 -6 6 -1
11 2 17 5 13 3 -3 4 -12 1 -19z m30 -10 c-3 -8 -6 -5 -6 6 -1 11 2 17 5 13 3
-3 4 -12 1 -19z m752 -50 c-23 -18 -51 -45 -62 -60 -18 -24 -18 -30 -7 -58 7
-17 20 -35 29 -40 19 -11 -605 -13 -629 -2 -8 4 -16 21 -16 38 -2 36 -18 30
166 66 184 36 210 38 210 18 0 -4 -79 -31 -176 -61 -96 -29 -171 -55 -165 -57
5 -2 63 13 128 32 65 19 197 58 293 86 96 28 181 53 188 55 7 3 10 0 7 -5 -3
-6 -2 -10 3 -10 6 0 12 7 16 15 3 8 17 15 31 15 25 0 24 -2 -16 -32z m-563 -7
c5 -6 41 -11 79 -13 l70 -3 -110 -23 c-60 -12 -113 -22 -117 -22 -5 0 -8 11
-8 25 0 20 5 25 25 25 14 0 25 5 25 10 0 13 23 13 36 1z m82 2 c-16 -2 -40 -2
-55 0 -16 2 -3 4 27 4 30 0 43 -2 28 -4z m187 -4 c10 -14 -1 -23 -17 -13 -7 4
-28 7 -48 6 -19 -1 -48 2 -65 7 -25 8 -16 9 47 10 45 1 80 -3 83 -10z m-467
-26 c4 -26 -31 -41 -53 -23 -11 9 -12 17 -4 32 14 26 53 20 57 -9z m83 16 c16
-8 18 -13 8 -25 -17 -21 -32 -17 -26 6 3 11 1 18 -4 14 -5 -3 -9 -14 -9 -24 0
-11 -9 -24 -21 -31 -19 -9 -20 -8 -14 10 3 11 1 29 -5 41 -10 18 -8 20 20 20
17 0 40 -5 51 -11z m-31 -114 c20 6 21 5 11 -14 -14 -25 -46 -28 -55 -5 -10
27 -7 37 9 24 8 -6 23 -9 35 -5z"/>
<path d="M1019 620 l-24 -20 28 11 c15 7 27 16 27 21 0 12 -5 10 -31 -12z"/>
<path d="M930 570 c-14 -11 -20 -20 -15 -20 6 0 21 9 35 20 14 11 21 20 15 20
-5 0 -21 -9 -35 -20z"/>
<path d="M853 514 c-20 -18 -22 -22 -7 -15 21 10 52 41 41 41 -3 0 -19 -12
-34 -26z"/>
<path d="M20 320 l0 -110 80 0 c79 0 80 0 80 25 0 23 -3 25 -50 25 l-50 0 0
85 0 85 -30 0 -30 0 0 -110z"/>
<path d="M239 329 c-24 -57 -45 -107 -47 -111 -2 -4 10 -8 27 -8 20 0 34 7 41
20 15 29 86 29 95 0 5 -15 15 -20 40 -20 l33 0 -43 108 c-40 99 -45 107 -72
110 -28 3 -31 -1 -74 -99z m84 -9 c4 -15 0 -20 -14 -20 -21 0 -22 1 -13 24 8
22 21 20 27 -4z"/>
<path d="M477 419 c-27 -16 -39 -55 -25 -84 8 -18 25 -29 57 -39 25 -7 47 -18
49 -24 5 -16 -60 -16 -76 0 -8 8 -15 8 -27 -2 -23 -19 -18 -36 14 -50 64 -26
136 -9 147 35 10 41 -4 63 -54 81 -26 10 -51 21 -56 25 -16 14 22 22 54 11 26
-10 31 -8 41 9 12 23 12 22 -18 38 -27 14 -82 14 -106 0z"/>
<path d="M657 423 c-4 -3 -7 -53 -7 -110 l0 -103 30 0 30 0 0 110 c0 109 0
110 -23 110 -13 0 -27 -3 -30 -7z"/>
<path d="M757 423 c-4 -3 -7 -53 -7 -110 l0 -103 30 0 c30 0 30 0 30 57 l0 58
26 -39 26 -38 26 39 27 38 3 -57 c3 -57 4 -58 32 -58 l30 0 0 105 0 105 -34 0
c-28 0 -38 -6 -56 -35 -24 -39 -36 -44 -44 -17 -14 43 -68 77 -89 55z"/>
<path d="M1010 315 l0 -105 30 0 c27 0 30 3 30 30 0 19 5 30 14 30 8 0 24 -13
36 -30 17 -24 29 -30 56 -30 l35 0 -25 33 c-26 34 -26 34 -6 52 13 12 20 31
20 56 0 54 -26 69 -117 69 l-73 0 0 -105z m125 30 c0 -15 -8 -21 -32 -23 -30
-3 -33 -1 -33 23 0 24 3 26 33 23 24 -2 32 -8 32 -23z"/>
<path d="M1262 316 c-23 -56 -42 -106 -42 -110 0 -3 13 -6 29 -6 21 0 32 6 36
20 9 29 85 29 103 0 12 -20 62 -28 62 -10 0 5 -19 55 -41 110 -40 97 -43 100
-73 100 -31 0 -33 -3 -74 -104z m91 -6 c4 -15 0 -20 -14 -20 -20 0 -23 8 -13
34 7 20 20 13 27 -14z"/>
<path d="M21 158 c-1 -15 8 -18 64 -18 51 0 65 3 65 15 0 18 -40 20 -59 3 -11
-11 -13 -10 -7 0 8 13 -19 13 -41 -1 -6 -4 -14 -1 -16 5 -3 8 -6 6 -6 -4z"/>
<path d="M160 155 c0 -18 16 -20 23 -2 4 10 6 10 6 0 1 -7 14 -13 30 -13 16 0
32 6 34 13 4 10 6 10 6 0 1 -7 5 -13 11 -13 5 0 7 7 4 15 -7 18 -60 20 -67 3
-4 -10 -6 -10 -6 0 -1 17 -41 15 -41 -3z"/>
<path d="M290 156 c0 -19 140 -22 152 -3 6 9 8 9 8 0 0 -8 15 -13 41 -13 24 0
38 4 34 10 -3 6 -1 10 4 10 6 0 11 -5 11 -11 0 -5 5 -7 10 -4 20 12 10 25 -19
25 -16 0 -32 -6 -34 -12 -4 -10 -6 -10 -6 0 -1 7 -14 12 -31 12 -17 0 -30 -5
-30 -12 0 -9 -4 -8 -10 2 -9 13 -10 13 -10 0 0 -13 -1 -13 -10 0 -9 13 -11 13
-20 0 -6 -10 -10 -11 -10 -2 0 7 -15 12 -40 12 -28 0 -40 -4 -40 -14z"/>
<path d="M566 155 c-4 -12 3 -15 29 -15 24 0 35 5 35 15 0 10 -10 15 -29 15
-16 0 -31 -6 -35 -15z"/>
<path d="M640 154 c0 -19 106 -20 113 -1 4 10 6 10 6 0 1 -9 25 -13 84 -13 67
0 84 3 84 15 0 12 -23 14 -144 13 -113 -1 -143 -4 -143 -14z"/>
<path d="M945 161 c-17 -16 14 -20 170 -20 152 -1 175 1 175 14 0 13 -11 16
-60 14 -34 -1 -63 -7 -67 -12 -3 -5 -9 -3 -14 4 -8 12 -11 11 -19 -1 -5 -8
-10 -10 -10 -4 0 7 -17 12 -40 12 -22 0 -40 -4 -40 -9 0 -6 -5 -7 -12 -2 -14
9 -76 12 -83 4z"/>
<path d="M1305 161 c-15 -15 3 -21 61 -21 41 0 63 4 59 10 -3 6 -2 10 4 10 5
0 11 -5 13 -12 3 -7 7 -6 11 5 5 15 -1 17 -41 17 -27 0 -54 -6 -61 -12 -10 -9
-12 -9 -7 -1 4 8 -1 11 -14 10 -12 -1 -23 -3 -25 -6z"/>
<path d="M20 75 l0 -35 715 0 715 0 0 35 0 35 -715 0 -715 0 0 -35z"/>
</g>
</svg>
