<?xml version="1.0" standalone="no"?>
<!DOCTYPE svg PUBLIC "-//W3C//DTD SVG 20010904//EN"
 "http://www.w3.org/TR/2001/REC-SVG-20010904/DTD/svg10.dtd">
<svg version="1.0" xmlns="http://www.w3.org/2000/svg"
 width="342.000000pt" height="342.000000pt" viewBox="0 0 342.000000 342.000000"
 preserveAspectRatio="xMidYMid meet">
<metadata>
Created by potrace 1.11, written by Peter Selinger 2001-2013
</metadata>
<g transform="translate(0.000000,342.000000) scale(0.100000,-0.100000)"
fill="#000000" stroke="none">
<path d="M1532 3378 c-60 -13 -74 -39 -80 -154 -3 -52 -9 -97 -14 -100 -13 -8
-179 -54 -194 -54 -6 0 -44 43 -84 96 -84 109 -75 107 -195 49 -138 -66 -275
-169 -275 -206 0 -11 11 -41 24 -67 12 -26 31 -69 41 -95 l18 -48 -69 -70
c-43 -44 -77 -69 -90 -69 -13 0 -57 14 -99 31 -49 19 -89 29 -113 27 -34 -3
-41 -9 -90 -83 -70 -108 -142 -247 -142 -278 0 -28 39 -66 126 -124 35 -23 54
-43 54 -55 0 -26 -27 -123 -47 -169 l-15 -37 -78 -4 c-107 -6 -151 -30 -167
-89 -25 -96 -11 -360 22 -397 6 -7 60 -17 123 -24 l112 -12 11 -38 c5 -21 13
-38 17 -38 4 0 7 -15 8 -32 1 -18 4 -49 8 -68 7 -34 6 -36 -69 -94 -82 -64
-95 -81 -95 -121 0 -62 149 -322 198 -344 40 -19 80 -12 152 24 38 19 76 35
83 35 8 0 44 -31 80 -69 76 -78 80 -95 44 -169 -13 -26 -29 -66 -37 -89 -12
-38 -11 -44 9 -69 31 -39 119 -97 231 -151 136 -65 140 -65 219 34 36 45 73
85 82 88 14 5 50 -3 154 -33 38 -11 64 -60 65 -127 1 -27 7 -68 14 -90 11 -37
15 -41 56 -48 141 -25 361 -16 405 17 12 9 18 32 22 82 6 103 21 150 49 163
14 6 60 18 102 27 l76 16 24 -29 c13 -15 38 -51 57 -80 58 -88 111 -89 245 -5
36 23 93 57 126 76 63 37 94 71 94 105 0 11 -16 50 -35 87 -43 82 -44 118 -5
163 29 34 29 35 12 63 -37 64 -133 166 -177 189 -44 23 -47 23 -59 7 -18 -24
-21 -23 -23 9 -5 75 -38 220 -69 305 -15 40 -26 87 -24 103 9 92 -9 167 -49
204 -39 36 -92 177 -84 223 4 26 -2 52 -20 94 -14 33 -28 70 -31 84 -15 66
-84 103 -164 88 -40 -7 -49 -5 -69 14 -21 19 -21 23 -8 38 14 15 12 21 -16 59
-30 42 -84 75 -104 64 -5 -3 -4 0 3 8 6 7 12 21 12 31 0 10 11 25 26 34 14 9
23 23 20 30 -6 17 20 44 42 44 9 0 64 16 122 35 l105 35 20 -23 c11 -12 27
-33 36 -46 16 -26 46 -25 81 1 16 12 17 18 3 78 -30 129 -76 210 -119 210 -36
0 -51 -27 -51 -89 l0 -55 -110 -39 c-143 -51 -170 -56 -178 -28 -9 37 -44 27
-144 -44 -13 -9 -23 -22 -23 -30 0 -17 -38 -38 -94 -54 -35 -9 -41 -8 -53 9
-17 24 -46 26 -63 5 -7 -8 -30 -20 -52 -27 -21 -6 -51 -25 -65 -42 -17 -21
-41 -35 -72 -42 -46 -10 -46 -11 -44 -49 4 -57 20 -69 67 -50 21 9 40 14 42
12 3 -2 8 -62 12 -133 8 -126 9 -131 42 -179 19 -28 32 -52 30 -55 -3 -3 15
-11 40 -19 25 -7 81 -26 124 -43 50 -19 92 -28 113 -26 26 3 32 1 28 -10 -7
-18 21 -62 39 -62 8 0 25 -15 40 -34 14 -19 38 -37 53 -41 26 -5 83 -47 83
-60 0 -3 -6 -5 -13 -5 -24 0 -229 -142 -295 -205 l-66 -62 -4 -125 -4 -126
-27 7 c-20 6 -27 15 -31 42 l-5 34 -67 5 c-36 3 -70 8 -74 13 -4 4 -2 7 4 7 7
0 12 11 12 25 0 22 -4 25 -37 25 -85 0 -218 -21 -229 -35 -6 -8 -14 -36 -18
-62 -5 -42 -3 -50 16 -66 19 -15 19 -17 3 -9 -30 15 -64 18 -64 7 0 -5 -17
-13 -38 -17 -36 -6 -40 -4 -88 45 -74 78 -105 119 -162 223 -91 166 -133 329
-133 519 0 796 786 1329 1525 1034 116 -46 227 -112 304 -181 30 -26 60 -48
65 -48 6 1 60 48 121 105 l109 105 -33 34 c-30 31 -33 39 -29 78 3 24 19 66
37 94 41 67 40 91 -6 136 -40 38 -161 116 -250 162 -94 47 -119 36 -207 -87
-47 -67 -49 -67 -85 -61 -44 9 -162 42 -168 48 -4 4 -10 39 -30 185 l-8 55
-55 12 c-64 15 -295 16 -358 2z m144 -1148 c9 -31 8 -40 -2 -44 -49 -19 -75
-158 -34 -184 11 -7 20 -21 20 -31 0 -10 10 -26 23 -34 16 -12 18 -16 7 -16
-9 -1 -21 4 -27 10 -6 6 -39 11 -73 12 -59 2 -64 4 -71 27 -3 14 -18 56 -32
93 l-26 68 30 6 c31 6 55 43 45 68 -7 19 8 34 49 49 67 24 80 21 91 -24z m120
-312 l19 -23 -25 20 c-14 11 -27 21 -29 22 -2 2 0 3 6 3 5 0 18 -10 29 -22z
m313 -803 c22 -44 55 -102 75 -130 20 -27 43 -65 51 -83 15 -32 53 -55 88 -54
21 1 23 -14 2 -22 -8 -3 -15 -14 -15 -25 0 -24 -29 -31 -77 -20 -21 5 -78 9
-127 9 l-88 0 4 -30 c4 -25 1 -30 -16 -30 -42 0 -66 13 -71 36 -17 80 -11 74
-70 74 l-54 0 1 88 c1 48 -2 106 -6 129 -10 48 -13 45 149 119 69 32 93 39
102 30 7 -6 30 -47 52 -91z"/>
<path d="M1608 2773 c6 -2 18 -2 25 0 6 3 1 5 -13 5 -14 0 -19 -2 -12 -5z"/>
<path d="M1538 2758 c5 -5 16 -8 23 -6 8 3 3 7 -10 11 -17 4 -21 3 -13 -5z"/>
<path d="M1828 2763 c7 -3 16 -2 19 1 4 3 -2 6 -13 5 -11 0 -14 -3 -6 -6z"/>
<path d="M1877 2749 c12 -12 24 -21 27 -18 2 2 -8 13 -22 23 l-27 19 22 -24z"/>
<path d="M1738 2753 c7 -3 16 -2 19 1 4 3 -2 6 -13 5 -11 0 -14 -3 -6 -6z"/>
<path d="M1940 2740 c6 -11 13 -20 16 -20 2 0 0 9 -6 20 -6 11 -13 20 -16 20
-2 0 0 -9 6 -20z"/>
<path d="M1437 2744 c-8 -8 1 -24 12 -24 4 0 8 7 8 15 0 16 -9 20 -20 9z"/>
<path d="M1475 2740 c3 -5 8 -10 11 -10 2 0 4 5 4 10 0 6 -5 10 -11 10 -5 0
-7 -4 -4 -10z"/>
<path d="M1404 2732 c3 -5 0 -13 -6 -15 -9 -4 -10 -6 -1 -6 17 -1 25 16 12 25
-7 4 -9 3 -5 -4z"/>
<path d="M1982 2731 c-11 -7 -10 -9 3 -14 9 -4 14 -3 10 2 -3 5 1 12 7 14 7 3
9 6 3 6 -5 0 -16 -3 -23 -8z"/>
<path d="M2033 2719 c9 -6 15 -14 13 -18 -3 -4 0 -8 7 -8 7 0 21 -4 31 -9 14
-5 17 -4 12 4 -4 7 -12 12 -17 12 -6 0 -17 7 -25 15 -9 8 -21 15 -27 15 -7 0
-4 -5 6 -11z"/>
<path d="M1312 2691 c-11 -7 -11 -9 0 -14 9 -3 15 1 15 9 0 8 -1 14 -1 14 -1
0 -7 -4 -14 -9z"/>
<path d="M1265 2680 c-3 -6 1 -7 9 -4 18 7 21 14 7 14 -6 0 -13 -4 -16 -10z"/>
<path d="M1235 2661 c3 -5 1 -12 -5 -16 -5 -3 -10 -1 -10 6 0 7 -3 10 -6 6
-12 -12 7 -28 20 -18 7 6 17 7 22 3 4 -4 2 1 -5 11 -14 18 -26 24 -16 8z"/>
<path d="M1173 2623 c-7 -2 -13 -9 -13 -15 0 -7 5 -7 13 1 8 6 18 7 22 3 5 -4
5 -1 1 6 -4 6 -8 12 -9 11 -1 0 -8 -3 -14 -6z"/>
<path d="M1126 2605 c-16 -12 -17 -17 -7 -28 7 -6 12 -7 11 -2 -5 21 1 29 10
15 7 -12 9 -10 7 8 0 12 -1 22 -2 22 0 0 -9 -7 -19 -15z"/>
<path d="M1054 2554 c-18 -14 -18 -15 4 -4 12 6 22 13 22 15 0 8 -5 6 -26 -11z"/>
<path d="M1081 2548 c-14 -23 -14 -23 8 -4 22 20 25 26 13 26 -4 0 -13 -10
-21 -22z"/>
<path d="M1025 2521 c-3 -5 -2 -12 3 -15 5 -3 9 1 9 9 0 17 -3 19 -12 6z"/>
<path d="M999 2503 c-1 -5 -1 -11 0 -15 0 -5 -4 -8 -11 -8 -6 0 -8 -3 -5 -7 4
-3 2 -13 -5 -22 -6 -9 0 -5 14 9 14 14 21 27 16 28 -4 2 -6 8 -2 13 3 5 3 9 0
9 -3 0 -7 -3 -7 -7z"/>
<path d="M951 2466 c-9 -11 -9 -16 1 -22 7 -4 10 -4 6 1 -4 4 -3 14 3 22 6 7
9 13 6 13 -2 0 -10 -6 -16 -14z"/>
<path d="M926 2432 c-3 -4 4 -9 15 -9 23 -2 25 3 4 10 -8 4 -16 3 -19 -1z"/>
<path d="M920 2401 c0 -7 -4 -10 -8 -7 -4 2 -14 1 -21 -3 -10 -7 -9 -9 2 -14
16 -6 44 19 33 30 -3 3 -6 1 -6 -6z"/>
<path d="M879 2366 c-1 -3 -2 -12 -3 -18 -1 -7 -7 -12 -13 -11 -6 1 -17 -5
-25 -15 -12 -15 -11 -16 5 -3 19 15 24 2 5 -17 -7 -7 -9 -12 -6 -12 13 0 57
69 48 75 -5 3 -11 4 -11 1z"/>
<path d="M813 2288 c-19 -25 -24 -38 -14 -38 6 0 11 6 11 14 0 8 6 16 13 19 6
2 9 7 6 11 -3 4 -11 1 -16 -6z"/>
<path d="M803 2233 c-7 -2 -13 -12 -14 -21 0 -14 -2 -13 -8 2 -6 17 -8 17 -14
4 -10 -27 20 -29 37 -2 9 13 15 24 14 23 -2 0 -9 -3 -15 -6z"/>
<path d="M724 2119 c-4 -7 -3 -9 4 -5 5 3 13 0 15 -6 4 -9 6 -10 6 -1 1 17
-16 25 -25 12z"/>
<path d="M709 2078 c-1 -7 0 -21 1 -32 1 -11 -3 -15 -9 -12 -7 5 -8 1 -5 -9 4
-9 9 -13 12 -10 7 7 13 75 7 75 -3 0 -6 -6 -6 -12z"/>
<path d="M686 1945 c-9 -26 -7 -32 5 -12 6 10 9 21 6 23 -2 3 -7 -2 -11 -11z"/>
<path d="M662 1865 c0 -16 2 -22 5 -12 2 9 2 23 0 30 -3 6 -5 -1 -5 -18z"/>
<path d="M676 1552 c-3 -5 1 -9 9 -9 8 0 12 4 9 9 -3 4 -7 8 -9 8 -2 0 -6 -4
-9 -8z"/>
<path d="M670 1526 c0 -2 8 -10 18 -17 15 -13 16 -12 3 4 -13 16 -21 21 -21
13z"/>
<path d="M691 1464 c0 -11 3 -14 6 -6 3 7 2 16 -1 19 -3 4 -6 -2 -5 -13z"/>
<path d="M710 1435 c0 -14 4 -25 9 -25 4 0 6 11 3 25 -2 14 -6 25 -8 25 -2 0
-4 -11 -4 -25z"/>
<path d="M720 1366 c0 -14 3 -27 8 -29 4 -3 7 8 7 24 0 16 -3 29 -7 29 -5 0
-8 -11 -8 -24z"/>
<path d="M749 1328 c-6 -21 -5 -38 1 -38 5 0 8 9 7 20 -1 17 -5 26 -8 18z"/>
<path d="M807 1196 c-4 -10 -1 -13 8 -9 8 3 12 9 9 14 -7 12 -11 11 -17 -5z"/>
<path d="M815 1171 c-3 -6 3 -9 14 -8 11 0 17 5 15 9 -7 11 -22 10 -29 -1z"/>
<path d="M847 1136 c-4 -10 -3 -14 2 -11 6 3 14 -3 20 -12 6 -10 11 -13 11 -7
0 5 -6 18 -13 28 -13 17 -14 18 -20 2z"/>
<path d="M885 1090 c-4 -6 -1 -9 7 -8 8 2 12 -4 10 -14 -3 -22 4 -24 11 -4 7
18 -18 42 -28 26z"/>
<path d="M930 1042 c0 -7 -6 -10 -12 -7 -7 4 1 -5 17 -19 17 -14 34 -26 38
-26 5 0 6 -4 2 -9 -3 -6 3 -15 14 -21 14 -7 22 -7 26 0 4 6 3 10 -2 9 -19 -3
-34 2 -28 10 3 5 -3 16 -13 23 -10 7 -24 22 -30 33 -6 11 -12 14 -12 7z"/>
</g>
</svg>
